<svg width="37" height="36" viewBox="0 0 37 36" fill="none" xmlns="http://www.w3.org/2000/svg">
<path d="M16.7959 34.2089C25.5197 34.2089 32.5918 27.0993 32.5918 18.3291C32.5918 9.55887 25.5197 2.44922 16.7959 2.44922C8.07206 2.44922 1 9.55887 1 18.3291C1 27.0993 8.07206 34.2089 16.7959 34.2089Z" stroke="#1975E6" stroke-width="0.855"/>
<path d="M20.2041 34.9999C28.9279 34.9999 36 27.8903 36 19.1201C36 10.3499 28.9279 3.24023 20.2041 3.24023C11.4803 3.24023 4.40824 10.3499 4.40824 19.1201C4.40824 27.8903 11.4803 34.9999 20.2041 34.9999Z" stroke="#1975E6" stroke-width="0.855"/>
<path d="M19.0243 32.7597C27.7482 32.7597 34.8202 25.65 34.8202 16.8798C34.8202 8.10965 27.7482 1 19.0243 1C10.3005 1 3.22846 8.10965 3.22846 16.8798C3.22846 25.65 10.3005 32.7597 19.0243 32.7597Z" stroke="#1975E6" stroke-width="0.855"/>
<path fill-rule="evenodd" clip-rule="evenodd" d="M25.4806 10.9697V14.0487H20.6951V27.3908H17.0263V14.0487H12.2409V10.9697H25.4806Z" fill="#1975E6"/>
</svg>
