<svg width="164" height="38" viewBox="0 0 164 38" fill="none" xmlns="http://www.w3.org/2000/svg">
<path d="M17.6985 36.1631C26.9208 36.1631 34.397 28.6352 34.397 19.3491C34.397 10.063 26.9208 2.53516 17.6985 2.53516C8.47617 2.53516 1 10.063 1 19.3491C1 28.6352 8.47617 36.1631 17.6985 36.1631Z" stroke="currentColor" stroke-width="0.9"/>
<path d="M21.3015 37C30.5238 37 38 29.4721 38 20.186C38 10.8999 30.5238 3.37207 21.3015 3.37207C12.0791 3.37207 4.60297 10.8999 4.60297 20.186C4.60297 29.4721 12.0791 37 21.3015 37Z" stroke="currentColor" stroke-width="0.9"/>
<path d="M20.0543 34.6279C29.2767 34.6279 36.7528 27.1 36.7528 17.814C36.7528 8.52786 29.2767 1 20.0543 1C10.832 1 3.35583 8.52786 3.35583 17.814C3.35583 27.1 10.832 34.6279 20.0543 34.6279Z" stroke="currentColor" stroke-width="0.9"/>
<path fill-rule="evenodd" clip-rule="evenodd" d="M26.8795 11.5566V14.8167H21.8206V28.9437H17.9421V14.8167H12.8832V11.5566H26.8795Z" fill="currentColor"/>
<path fill-rule="evenodd" clip-rule="evenodd" d="M71.2188 11.9131C71.377 11.9131 71.5205 11.9175 71.6494 11.9263C71.7783 11.9351 71.9541 11.9482 72.1768 11.9658V14.0049C72.0361 13.9873 71.8003 13.9741 71.4692 13.9653C71.1382 13.9565 70.9097 14.0298 70.7837 14.1851C70.6577 14.3403 70.5947 14.5117 70.5947 14.6992V15.5078H72.2383V17.2744H70.5947V25H68.0986V17.2744H66.7012V15.5078H68.0723V14.8926C68.0723 13.8672 68.2451 13.1611 68.5908 12.7744C68.9541 12.2002 69.8301 11.9131 71.2188 11.9131ZM64.7598 14.2773H62.2197V11.9658H64.7598V14.2773ZM53.7842 14.3389V12.0449H43.29V14.3389H47.1836V25H49.9082V14.3389H53.7842ZM60.0015 15.1958C59.9692 15.1929 59.9297 15.1914 59.8828 15.1914C59.1328 15.1914 58.5234 15.3877 58.0547 15.7803C57.7676 16.0146 57.4307 16.4512 57.0439 17.0898V15.4199H54.6533V25H57.1758V20.4209C57.1758 19.6533 57.2725 19.085 57.4658 18.7158C57.8115 18.0596 58.4883 17.7314 59.4961 17.7314C59.5723 17.7314 59.6719 17.7344 59.7949 17.7402C59.918 17.7461 60.0586 17.7578 60.2168 17.7754V15.209C60.1055 15.2031 60.0337 15.1987 60.0015 15.1958ZM64.7598 15.4199H62.2197V25H64.7598V15.4199ZM76.6099 17.7754C76.9292 17.4121 77.3789 17.2305 77.959 17.2305C78.4922 17.2305 78.939 17.4019 79.2993 17.7446C79.6597 18.0874 79.8604 18.5898 79.9014 19.252H76.0078C76.0898 18.6309 76.2905 18.1387 76.6099 17.7754ZM77.959 15.165C78.7559 15.165 79.4736 15.3145 80.1123 15.6133C80.751 15.9121 81.2783 16.3838 81.6943 17.0283C82.0693 17.5967 82.3125 18.2559 82.4238 19.0059C82.4883 19.4453 82.5146 20.0781 82.5029 20.9043H75.9463C75.9814 21.8652 76.2832 22.5391 76.8516 22.9258C77.1973 23.166 77.6133 23.2861 78.0996 23.2861C78.6152 23.2861 79.0342 23.1397 79.3564 22.8467C79.5322 22.6885 79.6875 22.4688 79.8223 22.1875H82.3799C82.3154 22.7559 82.0195 23.333 81.4922 23.9189C80.6719 24.8506 79.5234 25.3164 78.0469 25.3164C76.8281 25.3164 75.7529 24.9238 74.8213 24.1387C73.8896 23.3535 73.4238 22.0762 73.4238 20.3066C73.4238 18.6484 73.8442 17.377 74.6851 16.4922C75.5259 15.6074 76.6172 15.165 77.959 15.165ZM90.0518 17.8896C90.2451 18.1768 90.3652 18.499 90.4121 18.8564H92.9785C92.8379 17.4912 92.3853 16.5391 91.6206 16C90.856 15.4609 89.8731 15.1914 88.6719 15.1914C87.2598 15.1914 86.1523 15.6484 85.3496 16.5625C84.5469 17.4766 84.1455 18.7568 84.1455 20.4033C84.1455 21.8623 84.5088 23.0488 85.2354 23.9629C85.9619 24.877 87.0957 25.334 88.6367 25.334C90.1777 25.334 91.3408 24.7861 92.126 23.6904C92.6182 23.0107 92.8936 22.29 92.9521 21.5283H90.3945C90.3418 22.0322 90.1924 22.4424 89.9463 22.7588C89.7002 23.0752 89.2842 23.2334 88.6982 23.2334C87.8721 23.2334 87.3096 22.835 87.0107 22.0381C86.8467 21.6103 86.7646 21.0449 86.7646 20.3418C86.7646 19.6035 86.8467 19.0117 87.0107 18.5664C87.3213 17.7285 87.8984 17.3096 88.7422 17.3096C89.334 17.3096 89.7705 17.5029 90.0518 17.8896ZM94.2168 17.292V15.5078H95.5527V12.8359H98.0312V15.5078H99.5869V17.292H98.0312V22.3545C98.0312 22.7471 98.0811 22.9917 98.1807 23.0884C98.2803 23.1851 98.585 23.2334 99.0947 23.2334C99.1709 23.2334 99.2515 23.2319 99.3364 23.229C99.4214 23.2261 99.5049 23.2217 99.5869 23.2158V25.0879L98.4004 25.1318C97.2168 25.1729 96.4082 24.9678 95.9746 24.5166C95.6934 24.2295 95.5527 23.7871 95.5527 23.1895V17.292H94.2168ZM106.499 20.5835C106.66 20.522 106.819 20.4414 106.978 20.3418V21.2734C106.96 22.1113 106.724 22.6885 106.27 23.0049C105.816 23.3213 105.319 23.4795 104.78 23.4795C104.44 23.4795 104.152 23.3843 103.915 23.1938C103.677 23.0034 103.559 22.6943 103.559 22.2666C103.559 21.7861 103.752 21.4316 104.139 21.2031C104.367 21.0684 104.745 20.9541 105.272 20.8604L105.835 20.7549C106.116 20.7021 106.337 20.645 106.499 20.5835ZM105.457 19.1729C105.92 19.1143 106.251 19.041 106.45 18.9531C106.808 18.8008 106.986 18.5635 106.986 18.2412C106.986 17.8486 106.85 17.5776 106.578 17.4282C106.305 17.2788 105.905 17.2041 105.378 17.2041C104.786 17.2041 104.367 17.3506 104.121 17.6436C103.945 17.8604 103.828 18.1533 103.77 18.5225H101.353C101.405 17.6846 101.64 16.9961 102.056 16.457C102.718 15.6133 103.854 15.1914 105.466 15.1914C106.515 15.1914 107.446 15.3994 108.261 15.8154C109.075 16.2314 109.482 17.0166 109.482 18.1709V22.5654C109.482 22.8701 109.488 23.2393 109.5 23.6729C109.518 24.001 109.567 24.2236 109.649 24.3408C109.731 24.458 109.854 24.5547 110.019 24.6309V25H107.294C107.218 24.8066 107.165 24.625 107.136 24.4551C107.106 24.2852 107.083 24.0918 107.065 23.875C106.72 24.25 106.321 24.5693 105.87 24.833C105.331 25.1436 104.722 25.2988 104.042 25.2988C103.175 25.2988 102.458 25.0513 101.893 24.5562C101.328 24.061 101.045 23.3594 101.045 22.4512C101.045 21.2734 101.499 20.4209 102.407 19.8936C102.905 19.6064 103.638 19.4014 104.604 19.2783L105.457 19.1729ZM113.911 23.5762C113.577 23.3125 113.41 22.9522 113.41 22.4951C113.41 21.8916 113.653 21.4521 114.14 21.1768C114.427 21.0127 114.857 20.8926 115.432 20.8164L116.39 20.6934C116.683 20.6582 116.981 20.5996 117.286 20.5176C117.591 20.4355 117.84 20.333 118.033 20.21V21.4844C118.033 22.457 117.594 23.1572 116.715 23.585C116.193 23.8428 115.654 23.9717 115.098 23.9717C114.641 23.9717 114.245 23.8398 113.911 23.5762ZM117.242 19.2959C117.605 19.249 117.849 19.0967 117.972 18.8389C118.042 18.6982 118.077 18.4961 118.077 18.2324C118.077 17.6934 117.885 17.3022 117.501 17.0591C117.118 16.8159 116.568 16.6943 115.854 16.6943C115.027 16.6943 114.441 16.917 114.096 17.3623C113.902 17.6084 113.776 17.9746 113.718 18.4609H112.241C112.271 17.3008 112.647 16.4937 113.371 16.0396C114.094 15.5854 114.934 15.3584 115.889 15.3584C116.996 15.3584 117.896 15.5693 118.587 15.9912C119.272 16.4131 119.615 17.0693 119.615 17.96V23.3828C119.615 23.5469 119.649 23.6787 119.716 23.7783C119.784 23.8779 119.926 23.9277 120.143 23.9277C120.213 23.9277 120.292 23.9233 120.38 23.9146C120.468 23.9058 120.562 23.8926 120.661 23.875V25.0439C120.415 25.1143 120.228 25.1582 120.099 25.1758C119.97 25.1934 119.794 25.2021 119.571 25.2021C119.026 25.2021 118.631 25.0088 118.385 24.6221C118.256 24.417 118.165 24.127 118.112 23.752C117.79 24.1738 117.327 24.54 116.724 24.8506C116.12 25.1611 115.455 25.3164 114.729 25.3164C113.855 25.3164 113.142 25.0513 112.588 24.521C112.035 23.9907 111.758 23.3272 111.758 22.5303C111.758 21.6572 112.03 20.9805 112.575 20.5C113.12 20.0195 113.835 19.7236 114.72 19.6123L117.242 19.2959ZM124.624 12.959H123.024V15.5869H121.75V16.8789H123.024V23.1104C123.024 23.7139 123.156 24.2046 123.42 24.5825C123.684 24.9605 124.185 25.1494 124.923 25.1494C125.151 25.1494 125.364 25.1377 125.56 25.1143C125.756 25.0908 125.945 25.0527 126.127 25V23.752C126.01 23.7637 125.907 23.771 125.819 23.7739C125.731 23.7769 125.649 23.7783 125.573 23.7783C125.286 23.7783 125.081 23.7461 124.958 23.6816C124.735 23.5703 124.624 23.3506 124.624 23.0225V16.8789H126.127V15.5869H124.624V12.959ZM132.129 15.376C132.797 15.376 133.444 15.5327 134.071 15.8462C134.698 16.1597 135.176 16.5654 135.504 17.0635C135.82 17.5381 136.031 18.0918 136.137 18.7246C136.23 19.1582 136.277 19.8496 136.277 20.7988H129.378C129.407 21.7539 129.633 22.52 130.055 23.0972C130.477 23.6743 131.13 23.9629 132.015 23.9629C132.841 23.9629 133.5 23.6904 133.992 23.1455C134.273 22.8291 134.473 22.4629 134.59 22.0469H136.146C136.104 22.3926 135.968 22.7778 135.737 23.2026C135.505 23.6274 135.246 23.9746 134.959 24.2441C134.479 24.7129 133.884 25.0293 133.175 25.1934C132.794 25.2871 132.363 25.334 131.883 25.334C130.711 25.334 129.718 24.9077 128.903 24.0552C128.089 23.2026 127.682 22.0088 127.682 20.4736C127.682 18.9619 128.092 17.7344 128.912 16.791C129.732 15.8477 130.805 15.376 132.129 15.376ZM134.203 17.8984C134.438 18.3086 134.587 18.8564 134.651 19.542H129.422C129.451 18.7334 129.712 18.0669 130.204 17.5425C130.696 17.0181 131.306 16.7559 132.032 16.7559C133.046 16.7559 133.77 17.1367 134.203 17.8984ZM138.764 12.0889H140.346V25H138.764V12.0889ZM144.827 15.6309H143.219V25H144.827V15.6309ZM143.219 12.0889H144.827V13.8818H143.219V12.0889ZM153.58 15.8462C152.953 15.5327 152.306 15.376 151.638 15.376C150.313 15.376 149.241 15.8477 148.421 16.791C147.601 17.7344 147.19 18.9619 147.19 20.4736C147.19 22.0088 147.598 23.2026 148.412 24.0552C149.227 24.9077 150.22 25.334 151.392 25.334C151.872 25.334 152.303 25.2871 152.684 25.1934C153.393 25.0293 153.987 24.7129 154.468 24.2441C154.755 23.9746 155.014 23.6274 155.246 23.2026C155.477 22.7778 155.613 22.3926 155.654 22.0469H154.099C153.981 22.4629 153.782 22.8291 153.501 23.1455C153.009 23.6904 152.35 23.9629 151.523 23.9629C150.639 23.9629 149.985 23.6743 149.563 23.0972C149.142 22.52 148.916 21.7539 148.887 20.7988H155.786C155.786 19.8496 155.739 19.1582 155.646 18.7246C155.54 18.0918 155.329 17.5381 155.013 17.0635C154.685 16.5654 154.207 16.1597 153.58 15.8462ZM154.16 19.542C154.096 18.8564 153.946 18.3086 153.712 17.8984C153.278 17.1367 152.555 16.7559 151.541 16.7559C150.814 16.7559 150.205 17.0181 149.713 17.5425C149.221 18.0669 148.96 18.7334 148.931 19.542H154.16ZM159.775 15.5869H158.272V25H159.854V19.5859C159.854 18.918 160.068 18.3276 160.496 17.8149C160.924 17.3022 161.536 17.0459 162.333 17.0459C162.427 17.0459 162.513 17.0488 162.592 17.0547C162.671 17.0605 162.758 17.0723 162.852 17.0898V15.4199C162.682 15.4023 162.562 15.3906 162.491 15.3848C162.421 15.3789 162.371 15.376 162.342 15.376C161.715 15.376 161.161 15.603 160.681 16.0571C160.2 16.5112 159.898 16.8965 159.775 17.2129V15.5869Z" fill="currentColor"/>
</svg>
