<svg width="178" height="38" viewBox="0 0 178 38" fill="none" xmlns="http://www.w3.org/2000/svg">
<path d="M17.6985 36.1631C26.9208 36.1631 34.397 28.6352 34.397 19.3491C34.397 10.063 26.9208 2.53516 17.6985 2.53516C8.47617 2.53516 1 10.063 1 19.3491C1 28.6352 8.47617 36.1631 17.6985 36.1631Z" stroke="white" stroke-width="0.9"/>
<path d="M21.3015 37C30.5238 37 38 29.4721 38 20.186C38 10.8999 30.5238 3.37207 21.3015 3.37207C12.0791 3.37207 4.60297 10.8999 4.60297 20.186C4.60297 29.4721 12.0791 37 21.3015 37Z" stroke="white" stroke-width="0.9"/>
<path d="M20.0543 34.6279C29.2767 34.6279 36.7528 27.1 36.7528 17.814C36.7528 8.52786 29.2767 1 20.0543 1C10.832 1 3.35583 8.52786 3.35583 17.814C3.35583 27.1 10.832 34.6279 20.0543 34.6279Z" stroke="white" stroke-width="0.9"/>
<path fill-rule="evenodd" clip-rule="evenodd" d="M26.8795 11.5566V14.8167H21.8206V28.9437H17.9421V14.8167H12.8832V11.5566H26.8795Z" fill="white"/>
<path d="M47.104 13.776H43.072V11.4H54.052V13.776H50.02V24H47.104V13.776ZM58.394 15.594C58.73 15.126 59.18 14.772 59.744 14.532C60.32 14.292 60.98 14.172 61.724 14.172V16.764C61.412 16.74 61.202 16.728 61.094 16.728C60.29 16.728 59.66 16.956 59.204 17.412C58.748 17.856 58.52 18.528 58.52 19.428V24H55.712V14.316H58.394V15.594ZM63.8937 14.316H66.7017V24H63.8937V14.316ZM65.2977 12.966C64.7817 12.966 64.3617 12.816 64.0377 12.516C63.7137 12.216 63.5517 11.844 63.5517 11.4C63.5517 10.956 63.7137 10.584 64.0377 10.284C64.3617 9.984 64.7817 9.834 65.2977 9.834C65.8137 9.834 66.2337 9.978 66.5577 10.266C66.8817 10.554 67.0437 10.914 67.0437 11.346C67.0437 11.814 66.8817 12.204 66.5577 12.516C66.2337 12.816 65.8137 12.966 65.2977 12.966ZM72.8857 14.532H75.3697V16.692H72.9577V24H70.1497V16.692H68.6557V14.532H70.1497V14.1C70.1497 12.996 70.4737 12.12 71.1217 11.472C71.7817 10.824 72.7057 10.5 73.8937 10.5C74.3137 10.5 74.7097 10.548 75.0817 10.644C75.4657 10.728 75.7837 10.854 76.0357 11.022L75.2977 13.056C74.9737 12.828 74.5957 12.714 74.1637 12.714C73.3117 12.714 72.8857 13.182 72.8857 14.118V14.532ZM86.6316 19.194C86.6316 19.23 86.6136 19.482 86.5776 19.95H79.2516C79.3836 20.55 79.6956 21.024 80.1876 21.372C80.6796 21.72 81.2916 21.894 82.0236 21.894C82.5276 21.894 82.9716 21.822 83.3556 21.678C83.7516 21.522 84.1176 21.282 84.4536 20.958L85.9476 22.578C85.0356 23.622 83.7036 24.144 81.9516 24.144C80.8596 24.144 79.8936 23.934 79.0536 23.514C78.2136 23.082 77.5656 22.488 77.1096 21.732C76.6536 20.976 76.4256 20.118 76.4256 19.158C76.4256 18.21 76.6476 17.358 77.0916 16.602C77.5476 15.834 78.1656 15.24 78.9456 14.82C79.7376 14.388 80.6196 14.172 81.5916 14.172C82.5396 14.172 83.3976 14.376 84.1656 14.784C84.9336 15.192 85.5336 15.78 85.9656 16.548C86.4096 17.304 86.6316 18.186 86.6316 19.194ZM81.6096 16.296C80.9736 16.296 80.4396 16.476 80.0076 16.836C79.5756 17.196 79.3116 17.688 79.2156 18.312H83.9856C83.8896 17.7 83.6256 17.214 83.1936 16.854C82.7616 16.482 82.2336 16.296 81.6096 16.296ZM93.6811 24.144C92.6491 24.144 91.7191 23.934 90.8911 23.514C90.0751 23.082 89.4331 22.488 88.9651 21.732C88.5091 20.976 88.2811 20.118 88.2811 19.158C88.2811 18.198 88.5091 17.34 88.9651 16.584C89.4331 15.828 90.0751 15.24 90.8911 14.82C91.7191 14.388 92.6491 14.172 93.6811 14.172C94.7011 14.172 95.5891 14.388 96.3451 14.82C97.1131 15.24 97.6711 15.846 98.0191 16.638L95.8411 17.808C95.3371 16.92 94.6111 16.476 93.6631 16.476C92.9311 16.476 92.3251 16.716 91.8451 17.196C91.3651 17.676 91.1251 18.33 91.1251 19.158C91.1251 19.986 91.3651 20.64 91.8451 21.12C92.3251 21.6 92.9311 21.84 93.6631 21.84C94.6231 21.84 95.3491 21.396 95.8411 20.508L98.0191 21.696C97.6711 22.464 97.1131 23.064 96.3451 23.496C95.5891 23.928 94.7011 24.144 93.6811 24.144ZM106.522 23.532C106.246 23.736 105.904 23.892 105.496 24C105.1 24.096 104.68 24.144 104.236 24.144C103.084 24.144 102.19 23.85 101.554 23.262C100.93 22.674 100.618 21.81 100.618 20.67V16.692H99.1245V14.532H100.618V12.174H103.426V14.532H105.838V16.692H103.426V20.634C103.426 21.042 103.528 21.36 103.732 21.588C103.948 21.804 104.248 21.912 104.632 21.912C105.076 21.912 105.454 21.792 105.766 21.552L106.522 23.532ZM112.505 14.172C114.005 14.172 115.157 14.532 115.961 15.252C116.765 15.96 117.167 17.034 117.167 18.474V24H114.539V22.794C114.011 23.694 113.027 24.144 111.587 24.144C110.843 24.144 110.195 24.018 109.643 23.766C109.103 23.514 108.689 23.166 108.401 22.722C108.113 22.278 107.969 21.774 107.969 21.21C107.969 20.31 108.305 19.602 108.977 19.086C109.661 18.57 110.711 18.312 112.127 18.312H114.359C114.359 17.7 114.173 17.232 113.801 16.908C113.429 16.572 112.871 16.404 112.127 16.404C111.611 16.404 111.101 16.488 110.597 16.656C110.105 16.812 109.685 17.028 109.337 17.304L108.329 15.342C108.857 14.97 109.487 14.682 110.219 14.478C110.963 14.274 111.725 14.172 112.505 14.172ZM112.289 22.254C112.769 22.254 113.195 22.146 113.567 21.93C113.939 21.702 114.203 21.372 114.359 20.94V19.95H112.433C111.281 19.95 110.705 20.328 110.705 21.084C110.705 21.444 110.843 21.732 111.119 21.948C111.407 22.152 111.797 22.254 112.289 22.254ZM124.006 14.46C125.242 14.46 126.19 14.772 126.85 15.396C127.51 16.008 127.84 16.92 127.84 18.132V24H126.616V22.524C126.328 23.016 125.902 23.4 125.338 23.676C124.786 23.952 124.126 24.09 123.358 24.09C122.302 24.09 121.462 23.838 120.838 23.334C120.214 22.83 119.902 22.164 119.902 21.336C119.902 20.532 120.19 19.884 120.766 19.392C121.354 18.9 122.284 18.654 123.556 18.654H126.562V18.078C126.562 17.262 126.334 16.644 125.878 16.224C125.422 15.792 124.756 15.576 123.88 15.576C123.28 15.576 122.704 15.678 122.152 15.882C121.6 16.074 121.126 16.344 120.73 16.692L120.154 15.738C120.634 15.33 121.21 15.018 121.882 14.802C122.554 14.574 123.262 14.46 124.006 14.46ZM123.556 23.082C124.276 23.082 124.894 22.92 125.41 22.596C125.926 22.26 126.31 21.78 126.562 21.156V19.608H123.592C121.972 19.608 121.162 20.172 121.162 21.3C121.162 21.852 121.372 22.29 121.792 22.614C122.212 22.926 122.8 23.082 123.556 23.082ZM136.797 23.424C136.557 23.64 136.257 23.808 135.897 23.928C135.549 24.036 135.183 24.09 134.799 24.09C133.911 24.09 133.227 23.85 132.747 23.37C132.267 22.89 132.027 22.212 132.027 21.336V15.612H130.335V14.532H132.027V12.462H133.305V14.532H136.185V15.612H133.305V21.264C133.305 21.828 133.443 22.26 133.719 22.56C134.007 22.848 134.415 22.992 134.943 22.992C135.207 22.992 135.459 22.95 135.699 22.866C135.951 22.782 136.167 22.662 136.347 22.506L136.797 23.424ZM147.534 19.662H139.614C139.686 20.646 140.064 21.444 140.748 22.056C141.432 22.656 142.296 22.956 143.34 22.956C143.928 22.956 144.468 22.854 144.96 22.65C145.452 22.434 145.878 22.122 146.238 21.714L146.958 22.542C146.538 23.046 146.01 23.43 145.374 23.694C144.75 23.958 144.06 24.09 143.304 24.09C142.332 24.09 141.468 23.886 140.712 23.478C139.968 23.058 139.386 22.482 138.966 21.75C138.546 21.018 138.336 20.19 138.336 19.266C138.336 18.342 138.534 17.514 138.93 16.782C139.338 16.05 139.89 15.48 140.586 15.072C141.294 14.664 142.086 14.46 142.962 14.46C143.838 14.46 144.624 14.664 145.32 15.072C146.016 15.48 146.562 16.05 146.958 16.782C147.354 17.502 147.552 18.33 147.552 19.266L147.534 19.662ZM142.962 15.558C142.05 15.558 141.282 15.852 140.658 16.44C140.046 17.016 139.698 17.772 139.614 18.708H146.328C146.244 17.772 145.89 17.016 145.266 16.44C144.654 15.852 143.886 15.558 142.962 15.558ZM150.653 10.644H151.931V24H150.653V10.644ZM155.987 14.532H157.265V24H155.987V14.532ZM156.635 12.462C156.371 12.462 156.149 12.372 155.969 12.192C155.789 12.012 155.699 11.796 155.699 11.544C155.699 11.304 155.789 11.094 155.969 10.914C156.149 10.734 156.371 10.644 156.635 10.644C156.899 10.644 157.121 10.734 157.301 10.914C157.481 11.082 157.571 11.286 157.571 11.526C157.571 11.79 157.481 12.012 157.301 12.192C157.121 12.372 156.899 12.462 156.635 12.462ZM169.565 19.662H161.645C161.717 20.646 162.095 21.444 162.779 22.056C163.463 22.656 164.327 22.956 165.371 22.956C165.959 22.956 166.499 22.854 166.991 22.65C167.483 22.434 167.909 22.122 168.269 21.714L168.989 22.542C168.569 23.046 168.041 23.43 167.405 23.694C166.781 23.958 166.091 24.09 165.335 24.09C164.363 24.09 163.499 23.886 162.743 23.478C161.999 23.058 161.417 22.482 160.997 21.75C160.577 21.018 160.367 20.19 160.367 19.266C160.367 18.342 160.565 17.514 160.961 16.782C161.369 16.05 161.921 15.48 162.617 15.072C163.325 14.664 164.117 14.46 164.993 14.46C165.869 14.46 166.655 14.664 167.351 15.072C168.047 15.48 168.593 16.05 168.989 16.782C169.385 17.502 169.583 18.33 169.583 19.266L169.565 19.662ZM164.993 15.558C164.081 15.558 163.313 15.852 162.689 16.44C162.077 17.016 161.729 17.772 161.645 18.708H168.359C168.275 17.772 167.921 17.016 167.297 16.44C166.685 15.852 165.917 15.558 164.993 15.558ZM173.908 16.386C174.208 15.75 174.652 15.27 175.24 14.946C175.84 14.622 176.578 14.46 177.454 14.46V15.702L177.148 15.684C176.152 15.684 175.372 15.99 174.808 16.602C174.244 17.214 173.962 18.072 173.962 19.176V24H172.684V14.532H173.908V16.386Z" fill="white"/>
</svg>
